<mxfile host="app.diagrams.net" modified="2024-02-07T15:38:34.539Z" agent="Mozilla/5.0 (X11; Ubuntu; Linux x86_64; rv:122.0) Gecko/20100101 Firefox/122.0" etag="tESOGskGZJ4lYhuNiLKG" version="23.0.2" type="github">
  <diagram id="C5RBs43oDa-KdzZeNtuy" name="Page-1">
    <mxGraphModel dx="1600" dy="544" grid="1" gridSize="10" guides="1" tooltips="1" connect="1" arrows="1" fold="1" page="1" pageScale="1" pageWidth="6000" pageHeight="6000" math="0" shadow="0">
      <root>
        <mxCell id="WIyWlLk6GJQsqaUBKTNV-0" />
        <mxCell id="WIyWlLk6GJQsqaUBKTNV-1" parent="WIyWlLk6GJQsqaUBKTNV-0" />
        <mxCell id="WIyWlLk6GJQsqaUBKTNV-5" value="Yes" style="edgeStyle=orthogonalEdgeStyle;rounded=0;html=1;jettySize=auto;orthogonalLoop=1;fontSize=11;endArrow=block;endFill=0;endSize=8;strokeWidth=1;shadow=0;labelBackgroundColor=none;" parent="WIyWlLk6GJQsqaUBKTNV-1" source="WIyWlLk6GJQsqaUBKTNV-6" target="WIyWlLk6GJQsqaUBKTNV-7" edge="1">
          <mxGeometry y="10" relative="1" as="geometry">
            <mxPoint as="offset" />
          </mxGeometry>
        </mxCell>
        <mxCell id="bFSY4V7O1fo0n5eEkZ-_-23" style="edgeStyle=orthogonalEdgeStyle;rounded=0;orthogonalLoop=1;jettySize=auto;html=1;entryX=0;entryY=0.5;entryDx=0;entryDy=0;" parent="WIyWlLk6GJQsqaUBKTNV-1" source="WIyWlLk6GJQsqaUBKTNV-6" target="bFSY4V7O1fo0n5eEkZ-_-20" edge="1">
          <mxGeometry relative="1" as="geometry">
            <Array as="points">
              <mxPoint x="1349" y="1100" />
            </Array>
          </mxGeometry>
        </mxCell>
        <mxCell id="bFSY4V7O1fo0n5eEkZ-_-24" value="No" style="edgeLabel;html=1;align=center;verticalAlign=middle;resizable=0;points=[];" parent="bFSY4V7O1fo0n5eEkZ-_-23" vertex="1" connectable="0">
          <mxGeometry x="0.3173" y="-3" relative="1" as="geometry">
            <mxPoint as="offset" />
          </mxGeometry>
        </mxCell>
        <mxCell id="WIyWlLk6GJQsqaUBKTNV-6" value="&lt;br&gt;&lt;div&gt;single&lt;/div&gt;" style="rhombus;whiteSpace=wrap;html=1;shadow=0;fontFamily=Helvetica;fontSize=12;align=center;strokeWidth=1;spacing=6;spacingTop=-4;" parent="WIyWlLk6GJQsqaUBKTNV-1" vertex="1">
          <mxGeometry x="1299" y="930" width="100" height="80" as="geometry" />
        </mxCell>
        <mxCell id="bFSY4V7O1fo0n5eEkZ-_-42" value="" style="edgeStyle=orthogonalEdgeStyle;rounded=0;orthogonalLoop=1;jettySize=auto;html=1;" parent="WIyWlLk6GJQsqaUBKTNV-1" source="WIyWlLk6GJQsqaUBKTNV-7" target="bFSY4V7O1fo0n5eEkZ-_-41" edge="1">
          <mxGeometry relative="1" as="geometry" />
        </mxCell>
        <mxCell id="WIyWlLk6GJQsqaUBKTNV-7" value="Team = Player" style="rounded=1;whiteSpace=wrap;html=1;fontSize=12;glass=0;strokeWidth=1;shadow=0;" parent="WIyWlLk6GJQsqaUBKTNV-1" vertex="1">
          <mxGeometry x="1520" y="950" width="120" height="40" as="geometry" />
        </mxCell>
        <mxCell id="bFSY4V7O1fo0n5eEkZ-_-27" style="edgeStyle=orthogonalEdgeStyle;rounded=0;orthogonalLoop=1;jettySize=auto;html=1;entryX=0.5;entryY=1;entryDx=0;entryDy=0;" parent="WIyWlLk6GJQsqaUBKTNV-1" source="WIyWlLk6GJQsqaUBKTNV-12" target="bFSY4V7O1fo0n5eEkZ-_-20" edge="1">
          <mxGeometry relative="1" as="geometry" />
        </mxCell>
        <mxCell id="bFSY4V7O1fo0n5eEkZ-_-34" value="" style="edgeStyle=orthogonalEdgeStyle;rounded=0;orthogonalLoop=1;jettySize=auto;html=1;" parent="WIyWlLk6GJQsqaUBKTNV-1" source="WIyWlLk6GJQsqaUBKTNV-12" target="bFSY4V7O1fo0n5eEkZ-_-31" edge="1">
          <mxGeometry relative="1" as="geometry" />
        </mxCell>
        <mxCell id="WIyWlLk6GJQsqaUBKTNV-12" value="save player info" style="rounded=1;whiteSpace=wrap;html=1;fontSize=12;glass=0;strokeWidth=1;shadow=0;" parent="WIyWlLk6GJQsqaUBKTNV-1" vertex="1">
          <mxGeometry x="1700" y="1170" width="120" height="40" as="geometry" />
        </mxCell>
        <mxCell id="bFSY4V7O1fo0n5eEkZ-_-8" style="edgeStyle=orthogonalEdgeStyle;rounded=0;orthogonalLoop=1;jettySize=auto;html=1;entryX=0;entryY=0.5;entryDx=0;entryDy=0;" parent="WIyWlLk6GJQsqaUBKTNV-1" source="bFSY4V7O1fo0n5eEkZ-_-2" target="bFSY4V7O1fo0n5eEkZ-_-7" edge="1">
          <mxGeometry relative="1" as="geometry" />
        </mxCell>
        <mxCell id="bFSY4V7O1fo0n5eEkZ-_-2" value="&lt;div align=&quot;left&quot;&gt;Navigate_through_rounds()&lt;/div&gt;&lt;div align=&quot;left&quot;&gt;- Extract only new rounds ans save in json.&lt;/div&gt;&lt;div align=&quot;left&quot;&gt;&lt;span style=&quot;white-space: pre;&quot;&gt;&#x9;&lt;/span&gt;* Generate a folder by sport name&lt;br&gt;&lt;/div&gt;&lt;div align=&quot;left&quot;&gt;&lt;span style=&quot;white-space: pre;&quot;&gt;&#x9;&lt;/span&gt;* Generate a folder by league&lt;/div&gt;&lt;div align=&quot;left&quot;&gt;&lt;span style=&quot;white-space: pre;&quot;&gt;&#x9;&lt;/span&gt;* Generate a file by round.&lt;br&gt;&lt;/div&gt;&lt;div align=&quot;left&quot;&gt;&lt;span style=&quot;white-space: pre;&quot;&gt;&#x9;&lt;/span&gt;* save match link, and build a dict for each match.&lt;br&gt;&lt;/div&gt;&lt;div&gt;&lt;br&gt;&lt;/div&gt;" style="shape=process;whiteSpace=wrap;html=1;backgroundOutline=1;" parent="WIyWlLk6GJQsqaUBKTNV-1" vertex="1">
          <mxGeometry x="80" y="260" width="380" height="120" as="geometry" />
        </mxCell>
        <mxCell id="bFSY4V7O1fo0n5eEkZ-_-16" style="edgeStyle=orthogonalEdgeStyle;rounded=0;orthogonalLoop=1;jettySize=auto;html=1;exitX=0.5;exitY=1;exitDx=0;exitDy=0;" parent="WIyWlLk6GJQsqaUBKTNV-1" source="bFSY4V7O1fo0n5eEkZ-_-3" target="bFSY4V7O1fo0n5eEkZ-_-15" edge="1">
          <mxGeometry relative="1" as="geometry" />
        </mxCell>
        <mxCell id="bFSY4V7O1fo0n5eEkZ-_-3" value="get_complete_match_info_tennis()" style="rounded=0;whiteSpace=wrap;html=1;" parent="WIyWlLk6GJQsqaUBKTNV-1" vertex="1">
          <mxGeometry x="1190" y="640" width="320" height="100" as="geometry" />
        </mxCell>
        <mxCell id="bFSY4V7O1fo0n5eEkZ-_-13" style="edgeStyle=orthogonalEdgeStyle;rounded=0;orthogonalLoop=1;jettySize=auto;html=1;" parent="WIyWlLk6GJQsqaUBKTNV-1" source="bFSY4V7O1fo0n5eEkZ-_-7" target="bFSY4V7O1fo0n5eEkZ-_-12" edge="1">
          <mxGeometry relative="1" as="geometry" />
        </mxCell>
        <mxCell id="bFSY4V7O1fo0n5eEkZ-_-7" value="For round in list_files" style="rhombus;whiteSpace=wrap;html=1;shadow=0;fontFamily=Helvetica;fontSize=12;align=center;strokeWidth=1;spacing=6;spacingTop=-4;" parent="WIyWlLk6GJQsqaUBKTNV-1" vertex="1">
          <mxGeometry x="760" y="450" width="160" height="150" as="geometry" />
        </mxCell>
        <mxCell id="bFSY4V7O1fo0n5eEkZ-_-11" style="edgeStyle=orthogonalEdgeStyle;rounded=0;orthogonalLoop=1;jettySize=auto;html=1;exitX=0;exitY=0.5;exitDx=0;exitDy=0;entryX=0.5;entryY=1;entryDx=0;entryDy=0;" parent="WIyWlLk6GJQsqaUBKTNV-1" target="bFSY4V7O1fo0n5eEkZ-_-7" edge="1">
          <mxGeometry relative="1" as="geometry">
            <mxPoint x="1245" y="1460" as="sourcePoint" />
          </mxGeometry>
        </mxCell>
        <mxCell id="bFSY4V7O1fo0n5eEkZ-_-14" value="" style="edgeStyle=orthogonalEdgeStyle;rounded=0;orthogonalLoop=1;jettySize=auto;html=1;" parent="WIyWlLk6GJQsqaUBKTNV-1" source="bFSY4V7O1fo0n5eEkZ-_-12" target="bFSY4V7O1fo0n5eEkZ-_-3" edge="1">
          <mxGeometry relative="1" as="geometry" />
        </mxCell>
        <mxCell id="bFSY4V7O1fo0n5eEkZ-_-12" value="&lt;div&gt;&lt;font style=&quot;font-size: 14px;&quot;&gt;- League name&lt;/font&gt;&lt;/div&gt;&lt;div&gt;&lt;font size=&quot;3&quot;&gt;-&amp;nbsp; sport_name&lt;/font&gt;&lt;/div&gt;&lt;div&gt;&lt;font size=&quot;3&quot;&gt;-&amp;nbsp; league_id&lt;/font&gt;&lt;/div&gt;&lt;div&gt;&lt;font size=&quot;3&quot;&gt;- season_id&lt;/font&gt;&lt;/div&gt;&lt;div&gt;&lt;font size=&quot;3&quot;&gt;- &lt;b&gt;league_info&lt;/b&gt;&lt;br&gt;&lt;/font&gt;&lt;/div&gt;" style="rounded=1;whiteSpace=wrap;html=1;" parent="WIyWlLk6GJQsqaUBKTNV-1" vertex="1">
          <mxGeometry x="1214" y="450" width="270" height="150" as="geometry" />
        </mxCell>
        <mxCell id="bFSY4V7O1fo0n5eEkZ-_-21" style="edgeStyle=orthogonalEdgeStyle;rounded=0;orthogonalLoop=1;jettySize=auto;html=1;entryX=0.5;entryY=0;entryDx=0;entryDy=0;" parent="WIyWlLk6GJQsqaUBKTNV-1" source="bFSY4V7O1fo0n5eEkZ-_-15" target="WIyWlLk6GJQsqaUBKTNV-6" edge="1">
          <mxGeometry relative="1" as="geometry" />
        </mxCell>
        <mxCell id="bFSY4V7O1fo0n5eEkZ-_-15" value="&lt;div align=&quot;left&quot;&gt;&lt;font style=&quot;font-size: 14px;&quot;&gt;-&lt;/font&gt;&lt;font style=&quot;font-size: 14px;&quot;&gt; Extract home participants links&lt;br&gt;&lt;/font&gt;&lt;/div&gt;&lt;div align=&quot;left&quot;&gt;&lt;font style=&quot;font-size: 14px;&quot;&gt;- Extract away participants&lt;font&gt; links&lt;br&gt;&lt;/font&gt;&lt;/font&gt;&lt;/div&gt;" style="rounded=0;whiteSpace=wrap;html=1;" parent="WIyWlLk6GJQsqaUBKTNV-1" vertex="1">
          <mxGeometry x="1245" y="810" width="210" height="70" as="geometry" />
        </mxCell>
        <mxCell id="bFSY4V7O1fo0n5eEkZ-_-26" value="" style="edgeStyle=orthogonalEdgeStyle;rounded=0;orthogonalLoop=1;jettySize=auto;html=1;" parent="WIyWlLk6GJQsqaUBKTNV-1" source="bFSY4V7O1fo0n5eEkZ-_-18" target="WIyWlLk6GJQsqaUBKTNV-12" edge="1">
          <mxGeometry relative="1" as="geometry" />
        </mxCell>
        <mxCell id="bFSY4V7O1fo0n5eEkZ-_-18" value="&lt;div&gt;Create team&lt;/div&gt;&lt;div&gt;- Parti1 + .. + Participants &lt;br&gt;&lt;/div&gt;" style="rounded=0;whiteSpace=wrap;html=1;" parent="WIyWlLk6GJQsqaUBKTNV-1" vertex="1">
          <mxGeometry x="1700" y="1070" width="120" height="60" as="geometry" />
        </mxCell>
        <mxCell id="bFSY4V7O1fo0n5eEkZ-_-25" value="" style="edgeStyle=orthogonalEdgeStyle;rounded=0;orthogonalLoop=1;jettySize=auto;html=1;" parent="WIyWlLk6GJQsqaUBKTNV-1" source="bFSY4V7O1fo0n5eEkZ-_-20" target="bFSY4V7O1fo0n5eEkZ-_-18" edge="1">
          <mxGeometry relative="1" as="geometry" />
        </mxCell>
        <mxCell id="bFSY4V7O1fo0n5eEkZ-_-44" style="edgeStyle=orthogonalEdgeStyle;rounded=0;orthogonalLoop=1;jettySize=auto;html=1;entryX=0.5;entryY=0;entryDx=0;entryDy=0;" parent="WIyWlLk6GJQsqaUBKTNV-1" source="bFSY4V7O1fo0n5eEkZ-_-20" target="bFSY4V7O1fo0n5eEkZ-_-43" edge="1">
          <mxGeometry relative="1" as="geometry">
            <Array as="points">
              <mxPoint x="1545" y="1150" />
              <mxPoint x="1545" y="1150" />
            </Array>
          </mxGeometry>
        </mxCell>
        <mxCell id="bFSY4V7O1fo0n5eEkZ-_-20" value="for link in list_links:" style="rhombus;whiteSpace=wrap;html=1;" parent="WIyWlLk6GJQsqaUBKTNV-1" vertex="1">
          <mxGeometry x="1530" y="1060" width="80" height="80" as="geometry" />
        </mxCell>
        <mxCell id="bFSY4V7O1fo0n5eEkZ-_-48" style="edgeStyle=orthogonalEdgeStyle;rounded=0;orthogonalLoop=1;jettySize=auto;html=1;entryX=1;entryY=0.5;entryDx=0;entryDy=0;" parent="WIyWlLk6GJQsqaUBKTNV-1" source="bFSY4V7O1fo0n5eEkZ-_-28" target="bFSY4V7O1fo0n5eEkZ-_-47" edge="1">
          <mxGeometry relative="1" as="geometry">
            <Array as="points">
              <mxPoint x="1550" y="1460" />
            </Array>
          </mxGeometry>
        </mxCell>
        <mxCell id="bFSY4V7O1fo0n5eEkZ-_-28" value="save team info" style="rounded=1;whiteSpace=wrap;html=1;fontSize=12;glass=0;strokeWidth=1;shadow=0;" parent="WIyWlLk6GJQsqaUBKTNV-1" vertex="1">
          <mxGeometry x="1484" y="1390" width="120" height="40" as="geometry" />
        </mxCell>
        <mxCell id="bFSY4V7O1fo0n5eEkZ-_-49" style="edgeStyle=orthogonalEdgeStyle;rounded=0;orthogonalLoop=1;jettySize=auto;html=1;entryX=1;entryY=0.5;entryDx=0;entryDy=0;" parent="WIyWlLk6GJQsqaUBKTNV-1" source="bFSY4V7O1fo0n5eEkZ-_-30" target="bFSY4V7O1fo0n5eEkZ-_-47" edge="1">
          <mxGeometry relative="1" as="geometry">
            <Array as="points">
              <mxPoint x="2120" y="1460" />
            </Array>
          </mxGeometry>
        </mxCell>
        <mxCell id="bFSY4V7O1fo0n5eEkZ-_-30" value="Save Player info" style="rounded=1;whiteSpace=wrap;html=1;" parent="WIyWlLk6GJQsqaUBKTNV-1" vertex="1">
          <mxGeometry x="2050" y="1162" width="120" height="60" as="geometry" />
        </mxCell>
        <mxCell id="bFSY4V7O1fo0n5eEkZ-_-36" value="" style="edgeStyle=orthogonalEdgeStyle;rounded=0;orthogonalLoop=1;jettySize=auto;html=1;" parent="WIyWlLk6GJQsqaUBKTNV-1" source="bFSY4V7O1fo0n5eEkZ-_-31" target="bFSY4V7O1fo0n5eEkZ-_-30" edge="1">
          <mxGeometry relative="1" as="geometry" />
        </mxCell>
        <mxCell id="bFSY4V7O1fo0n5eEkZ-_-37" value="No" style="edgeLabel;html=1;align=center;verticalAlign=middle;resizable=0;points=[];" parent="bFSY4V7O1fo0n5eEkZ-_-36" vertex="1" connectable="0">
          <mxGeometry x="-0.1358" y="-2" relative="1" as="geometry">
            <mxPoint as="offset" />
          </mxGeometry>
        </mxCell>
        <mxCell id="bFSY4V7O1fo0n5eEkZ-_-31" value="Check player duplicate" style="rhombus;whiteSpace=wrap;html=1;" parent="WIyWlLk6GJQsqaUBKTNV-1" vertex="1">
          <mxGeometry x="1880" y="1146" width="90" height="90" as="geometry" />
        </mxCell>
        <mxCell id="bFSY4V7O1fo0n5eEkZ-_-38" value="&lt;div&gt;Save Player info&lt;/div&gt;&lt;div&gt;Save team info&lt;br&gt;&lt;/div&gt;" style="rounded=1;whiteSpace=wrap;html=1;" parent="WIyWlLk6GJQsqaUBKTNV-1" vertex="1">
          <mxGeometry x="1880" y="942" width="120" height="60" as="geometry" />
        </mxCell>
        <mxCell id="bFSY4V7O1fo0n5eEkZ-_-39" value="" style="edgeStyle=orthogonalEdgeStyle;rounded=0;orthogonalLoop=1;jettySize=auto;html=1;" parent="WIyWlLk6GJQsqaUBKTNV-1" source="bFSY4V7O1fo0n5eEkZ-_-41" target="bFSY4V7O1fo0n5eEkZ-_-38" edge="1">
          <mxGeometry relative="1" as="geometry" />
        </mxCell>
        <mxCell id="bFSY4V7O1fo0n5eEkZ-_-40" value="No" style="edgeLabel;html=1;align=center;verticalAlign=middle;resizable=0;points=[];" parent="bFSY4V7O1fo0n5eEkZ-_-39" vertex="1" connectable="0">
          <mxGeometry x="-0.1358" y="-2" relative="1" as="geometry">
            <mxPoint as="offset" />
          </mxGeometry>
        </mxCell>
        <mxCell id="bFSY4V7O1fo0n5eEkZ-_-41" value="Check player duplicate" style="rhombus;whiteSpace=wrap;html=1;" parent="WIyWlLk6GJQsqaUBKTNV-1" vertex="1">
          <mxGeometry x="1710" y="926" width="90" height="90" as="geometry" />
        </mxCell>
        <mxCell id="bFSY4V7O1fo0n5eEkZ-_-45" style="edgeStyle=orthogonalEdgeStyle;rounded=0;orthogonalLoop=1;jettySize=auto;html=1;" parent="WIyWlLk6GJQsqaUBKTNV-1" source="bFSY4V7O1fo0n5eEkZ-_-43" target="bFSY4V7O1fo0n5eEkZ-_-28" edge="1">
          <mxGeometry relative="1" as="geometry" />
        </mxCell>
        <mxCell id="bFSY4V7O1fo0n5eEkZ-_-46" value="&lt;div&gt;No&lt;/div&gt;" style="edgeLabel;html=1;align=center;verticalAlign=middle;resizable=0;points=[];" parent="bFSY4V7O1fo0n5eEkZ-_-45" vertex="1" connectable="0">
          <mxGeometry x="-0.2541" y="-4" relative="1" as="geometry">
            <mxPoint as="offset" />
          </mxGeometry>
        </mxCell>
        <mxCell id="bFSY4V7O1fo0n5eEkZ-_-43" value="Check team duplicate" style="rhombus;whiteSpace=wrap;html=1;" parent="WIyWlLk6GJQsqaUBKTNV-1" vertex="1">
          <mxGeometry x="1500" y="1240" width="90" height="90" as="geometry" />
        </mxCell>
        <mxCell id="bFSY4V7O1fo0n5eEkZ-_-47" value="" style="ellipse;whiteSpace=wrap;html=1;aspect=fixed;" parent="WIyWlLk6GJQsqaUBKTNV-1" vertex="1">
          <mxGeometry x="1245" y="1420" width="80" height="80" as="geometry" />
        </mxCell>
        <mxCell id="bFSY4V7O1fo0n5eEkZ-_-52" style="edgeStyle=orthogonalEdgeStyle;rounded=0;orthogonalLoop=1;jettySize=auto;html=1;" parent="WIyWlLk6GJQsqaUBKTNV-1" edge="1">
          <mxGeometry relative="1" as="geometry">
            <mxPoint x="1949" y="795" as="sourcePoint" />
            <mxPoint x="2119" y="795" as="targetPoint" />
          </mxGeometry>
        </mxCell>
        <mxCell id="bFSY4V7O1fo0n5eEkZ-_-55" value="&lt;div&gt;team_id&lt;/div&gt;" style="edgeLabel;html=1;align=center;verticalAlign=middle;resizable=0;points=[];" parent="bFSY4V7O1fo0n5eEkZ-_-52" vertex="1" connectable="0">
          <mxGeometry x="0.282" y="-1" relative="1" as="geometry">
            <mxPoint as="offset" />
          </mxGeometry>
        </mxCell>
        <mxCell id="bFSY4V7O1fo0n5eEkZ-_-50" value="&lt;div&gt;&lt;font style=&quot;font-size: 14px;&quot;&gt;TEAM&lt;br&gt;&lt;/font&gt;&lt;/div&gt;&lt;div&gt;&lt;font size=&quot;3&quot;&gt;&lt;br&gt;&lt;/font&gt;&lt;/div&gt;&lt;div align=&quot;left&quot;&gt;&lt;font size=&quot;3&quot;&gt;-&amp;nbsp; &lt;b&gt;team_id&lt;/b&gt;&lt;/font&gt;&lt;/div&gt;&lt;div align=&quot;left&quot;&gt;&lt;font size=&quot;3&quot;&gt;-&amp;nbsp; team_country&lt;br&gt;&lt;/font&gt;&lt;/div&gt;&lt;div align=&quot;left&quot;&gt;&lt;font size=&quot;3&quot;&gt;-&amp;nbsp; team_desc&lt;/font&gt;&lt;/div&gt;&lt;div align=&quot;left&quot;&gt;&lt;font size=&quot;3&quot;&gt;-&amp;nbsp; team_logo&lt;/font&gt;&lt;/div&gt;&lt;div align=&quot;left&quot;&gt;&lt;font size=&quot;3&quot;&gt;-&amp;nbsp; sport_id&lt;br&gt;&lt;/font&gt;&lt;/div&gt;" style="rounded=0;whiteSpace=wrap;html=1;" parent="WIyWlLk6GJQsqaUBKTNV-1" vertex="1">
          <mxGeometry x="1750" y="700" width="200" height="190" as="geometry" />
        </mxCell>
        <mxCell id="bFSY4V7O1fo0n5eEkZ-_-51" value="&lt;div&gt;&lt;font style=&quot;font-size: 14px;&quot;&gt;TEAM_PLAYERS_ENTITY&lt;br&gt;&lt;/font&gt;&lt;/div&gt;&lt;div&gt;&lt;font size=&quot;3&quot;&gt;&lt;br&gt;&lt;/font&gt;&lt;/div&gt;&lt;div align=&quot;left&quot;&gt;&lt;font size=&quot;3&quot;&gt;- player_meta&lt;/font&gt;&lt;/div&gt;&lt;div align=&quot;left&quot;&gt;&lt;font size=&quot;3&quot;&gt;-&amp;nbsp; season_id&lt;br&gt;&lt;/font&gt;&lt;/div&gt;&lt;div align=&quot;left&quot;&gt;&lt;b&gt;&lt;font size=&quot;3&quot;&gt;-&amp;nbsp; team_id&lt;br&gt;&lt;/font&gt;&lt;/b&gt;&lt;/div&gt;&lt;div align=&quot;left&quot;&gt;&lt;font size=&quot;3&quot;&gt;&lt;b&gt;-&amp;nbsp; player_id&lt;br&gt;&lt;/b&gt;&lt;/font&gt;&lt;/div&gt;" style="rounded=0;whiteSpace=wrap;html=1;" parent="WIyWlLk6GJQsqaUBKTNV-1" vertex="1">
          <mxGeometry x="2120" y="700" width="230" height="190" as="geometry" />
        </mxCell>
        <mxCell id="bFSY4V7O1fo0n5eEkZ-_-57" style="edgeStyle=orthogonalEdgeStyle;rounded=0;orthogonalLoop=1;jettySize=auto;html=1;entryX=1;entryY=0.5;entryDx=0;entryDy=0;" parent="WIyWlLk6GJQsqaUBKTNV-1" source="bFSY4V7O1fo0n5eEkZ-_-56" target="bFSY4V7O1fo0n5eEkZ-_-51" edge="1">
          <mxGeometry relative="1" as="geometry" />
        </mxCell>
        <mxCell id="bFSY4V7O1fo0n5eEkZ-_-56" value="&lt;div&gt;&lt;font style=&quot;font-size: 14px;&quot;&gt;PLAYER&lt;br&gt;&lt;/font&gt;&lt;/div&gt;&lt;div&gt;&lt;font size=&quot;3&quot;&gt;&lt;br&gt;&lt;/font&gt;&lt;/div&gt;&lt;div align=&quot;left&quot;&gt;&lt;font size=&quot;3&quot;&gt;- &lt;b&gt;player_id&lt;br&gt;&lt;/b&gt;&lt;/font&gt;&lt;/div&gt;&lt;div align=&quot;left&quot;&gt;&lt;font size=&quot;3&quot;&gt;-&amp;nbsp; player_country&lt;br&gt;&lt;/font&gt;&lt;/div&gt;&lt;div align=&quot;left&quot;&gt;&lt;b&gt;&lt;font size=&quot;3&quot;&gt;-&amp;nbsp; &lt;/font&gt;&lt;/b&gt;&lt;font size=&quot;3&quot;&gt;player_dob&lt;/font&gt;&lt;b&gt;&lt;font size=&quot;3&quot;&gt;&lt;br&gt;&lt;/font&gt;&lt;/b&gt;&lt;/div&gt;&lt;div align=&quot;left&quot;&gt;&lt;font size=&quot;3&quot;&gt;-&amp;nbsp; player_name&lt;/font&gt;&lt;/div&gt;&lt;div align=&quot;left&quot;&gt;&lt;font size=&quot;3&quot;&gt;-&amp;nbsp; player_photo&lt;/font&gt;&lt;/div&gt;&lt;div align=&quot;left&quot;&gt;&lt;font size=&quot;3&quot;&gt;-&amp;nbsp; player_position&lt;br&gt;&lt;/font&gt;&lt;/div&gt;" style="rounded=0;whiteSpace=wrap;html=1;" parent="WIyWlLk6GJQsqaUBKTNV-1" vertex="1">
          <mxGeometry x="2520" y="701" width="230" height="190" as="geometry" />
        </mxCell>
        <mxCell id="maIhg3ylxNfmWybhCXxw-0" style="edgeStyle=orthogonalEdgeStyle;rounded=0;orthogonalLoop=1;jettySize=auto;html=1;" edge="1" parent="WIyWlLk6GJQsqaUBKTNV-1">
          <mxGeometry relative="1" as="geometry">
            <mxPoint x="2391" y="1025" as="sourcePoint" />
            <mxPoint x="2561" y="1025" as="targetPoint" />
          </mxGeometry>
        </mxCell>
        <mxCell id="maIhg3ylxNfmWybhCXxw-1" value="&lt;div&gt;team_id&lt;/div&gt;" style="edgeLabel;html=1;align=center;verticalAlign=middle;resizable=0;points=[];" vertex="1" connectable="0" parent="maIhg3ylxNfmWybhCXxw-0">
          <mxGeometry x="0.282" y="-1" relative="1" as="geometry">
            <mxPoint as="offset" />
          </mxGeometry>
        </mxCell>
        <mxCell id="maIhg3ylxNfmWybhCXxw-2" value="&lt;div&gt;&lt;font style=&quot;font-size: 14px;&quot;&gt;MATCH&lt;br&gt;&lt;/font&gt;&lt;/div&gt;&lt;div&gt;&lt;font size=&quot;3&quot;&gt;&lt;br&gt;&lt;/font&gt;&lt;/div&gt;&lt;div align=&quot;left&quot;&gt;&lt;font size=&quot;3&quot;&gt;-&amp;nbsp; &lt;b&gt;mathc_id&lt;br&gt;&lt;/b&gt;&lt;/font&gt;&lt;/div&gt;&lt;div align=&quot;left&quot;&gt;&lt;font size=&quot;3&quot;&gt;-&amp;nbsp; match_country&lt;br&gt;&lt;/font&gt;&lt;/div&gt;&lt;div align=&quot;left&quot;&gt;&lt;font size=&quot;3&quot;&gt;-&amp;nbsp; match_date&lt;br&gt;&lt;/font&gt;&lt;/div&gt;&lt;div align=&quot;left&quot;&gt;&lt;font size=&quot;3&quot;&gt;-&amp;nbsp; name&lt;br&gt;&lt;/font&gt;&lt;/div&gt;&lt;div align=&quot;left&quot;&gt;&lt;font size=&quot;3&quot;&gt;-&amp;nbsp; place&lt;/font&gt;&lt;/div&gt;&lt;div align=&quot;left&quot;&gt;&lt;font size=&quot;3&quot;&gt;-&amp;nbsp; start_time&lt;br&gt;&lt;/font&gt;&lt;/div&gt;&lt;div align=&quot;left&quot;&gt;&lt;font size=&quot;3&quot;&gt;-&amp;nbsp; league_id&lt;br&gt;&lt;/font&gt;&lt;/div&gt;&lt;div align=&quot;left&quot;&gt;&lt;font size=&quot;3&quot;&gt;-&amp;nbsp; rounds&lt;br&gt;&lt;/font&gt;&lt;/div&gt;&lt;div align=&quot;left&quot;&gt;&lt;font size=&quot;3&quot;&gt;- season_id&lt;/font&gt;&lt;/div&gt;&lt;div align=&quot;left&quot;&gt;&lt;font size=&quot;3&quot;&gt;- stadium_id&lt;br&gt;&lt;/font&gt;&lt;/div&gt;" style="rounded=0;whiteSpace=wrap;html=1;" vertex="1" parent="WIyWlLk6GJQsqaUBKTNV-1">
          <mxGeometry x="2192" y="930" width="200" height="250" as="geometry" />
        </mxCell>
        <mxCell id="maIhg3ylxNfmWybhCXxw-3" value="&lt;div&gt;&lt;font style=&quot;font-size: 14px;&quot;&gt;MATCH_DETAIL (2 INPUTS)&lt;br&gt;&lt;/font&gt;&lt;/div&gt;&lt;div&gt;&lt;font size=&quot;3&quot;&gt;&lt;br&gt;&lt;/font&gt;&lt;/div&gt;&lt;div align=&quot;left&quot;&gt;&lt;font size=&quot;3&quot;&gt;&lt;b&gt;- match_id&lt;br&gt;&lt;/b&gt;&lt;/font&gt;&lt;/div&gt;&lt;div align=&quot;left&quot;&gt;&lt;font size=&quot;3&quot;&gt;-&amp;nbsp; match_detail_id&lt;br&gt;&lt;/font&gt;&lt;/div&gt;&lt;div align=&quot;left&quot;&gt;&lt;font size=&quot;3&quot;&gt;-&amp;nbsp; home (Bool)&lt;br&gt;&lt;/font&gt;&lt;/div&gt;&lt;div align=&quot;left&quot;&gt;&lt;font size=&quot;3&quot;&gt;-&amp;nbsp; visitor (Bool)&lt;b&gt;&lt;br&gt;&lt;/b&gt;&lt;/font&gt;&lt;/div&gt;&lt;div align=&quot;left&quot;&gt;&lt;font size=&quot;3&quot;&gt;-&amp;nbsp; team_id&lt;b&gt;&lt;br&gt;&lt;/b&gt;&lt;/font&gt;&lt;/div&gt;" style="rounded=0;whiteSpace=wrap;html=1;" vertex="1" parent="WIyWlLk6GJQsqaUBKTNV-1">
          <mxGeometry x="2562" y="921" width="230" height="320" as="geometry" />
        </mxCell>
        <mxCell id="maIhg3ylxNfmWybhCXxw-4" style="edgeStyle=orthogonalEdgeStyle;rounded=0;orthogonalLoop=1;jettySize=auto;html=1;entryX=1;entryY=0.5;entryDx=0;entryDy=0;" edge="1" parent="WIyWlLk6GJQsqaUBKTNV-1" source="maIhg3ylxNfmWybhCXxw-5" target="maIhg3ylxNfmWybhCXxw-3">
          <mxGeometry relative="1" as="geometry" />
        </mxCell>
        <mxCell id="maIhg3ylxNfmWybhCXxw-5" value="&lt;div&gt;&lt;font style=&quot;font-size: 14px;&quot;&gt;Score_entity&lt;br&gt;&lt;/font&gt;&lt;/div&gt;&lt;div&gt;&lt;font size=&quot;3&quot;&gt;&lt;br&gt;&lt;/font&gt;&lt;/div&gt;&lt;div align=&quot;left&quot;&gt;&lt;font size=&quot;3&quot;&gt;- score_id&lt;b&gt;&lt;br&gt;&lt;/b&gt;&lt;/font&gt;&lt;/div&gt;&lt;div align=&quot;left&quot;&gt;&lt;font size=&quot;3&quot;&gt;&lt;b&gt;-&amp;nbsp; match_detail_id&lt;br&gt;&lt;/b&gt;&lt;/font&gt;&lt;/div&gt;&lt;div align=&quot;left&quot;&gt;&lt;font size=&quot;3&quot;&gt;-&amp;nbsp; points&lt;/font&gt;&lt;/div&gt;" style="rounded=0;whiteSpace=wrap;html=1;" vertex="1" parent="WIyWlLk6GJQsqaUBKTNV-1">
          <mxGeometry x="2870" y="986" width="230" height="190" as="geometry" />
        </mxCell>
      </root>
    </mxGraphModel>
  </diagram>
</mxfile>
